<svg width="50" height="50" viewBox="0 0 50 50" fill="none" xmlns="http://www.w3.org/2000/svg">
<path d="M18.75 45.8334C19.9006 45.8334 20.8333 44.9007 20.8333 43.7501C20.8333 42.5995 19.9006 41.6667 18.75 41.6667C17.5994 41.6667 16.6666 42.5995 16.6666 43.7501C16.6666 44.9007 17.5994 45.8334 18.75 45.8334Z" stroke="#70F495" stroke-width="1.5" stroke-linecap="round" stroke-linejoin="round"/>
<path d="M41.6667 45.8334C42.8173 45.8334 43.75 44.9007 43.75 43.7501C43.75 42.5995 42.8173 41.6667 41.6667 41.6667C40.5161 41.6667 39.5834 42.5995 39.5834 43.7501C39.5834 44.9007 40.5161 45.8334 41.6667 45.8334Z" stroke="#70F495" stroke-width="1.5" stroke-linecap="round" stroke-linejoin="round"/>
<path d="M2.08337 2.08325H10.4167L16 29.9791C16.1906 30.9382 16.7124 31.7998 17.4741 32.413C18.2358 33.0262 19.189 33.352 20.1667 33.3333H40.4167C41.3944 33.352 42.3476 33.0262 43.1093 32.413C43.8711 31.7998 44.3929 30.9382 44.5834 29.9791L47.9167 12.4999H12.5" stroke="#70F495" stroke-width="1.5" stroke-linecap="round" stroke-linejoin="round"/>
</svg>
