<svg width="80" height="80" viewBox="0 0 80 80" fill="none" xmlns="http://www.w3.org/2000/svg">
<path d="M56.6666 70V63.3333C56.6666 59.7971 55.2618 56.4057 52.7613 53.9052C50.2609 51.4048 46.8695 50 43.3333 50H16.6666C13.1304 50 9.73898 51.4048 7.23849 53.9052C4.73801 56.4057 3.33325 59.7971 3.33325 63.3333V70" stroke="black" stroke-width="3" stroke-linecap="round" stroke-linejoin="round"/>
<path d="M30.0001 36.6667C37.3639 36.6667 43.3334 30.6971 43.3334 23.3333C43.3334 15.9695 37.3639 10 30.0001 10C22.6363 10 16.6667 15.9695 16.6667 23.3333C16.6667 30.6971 22.6363 36.6667 30.0001 36.6667Z" stroke="black" stroke-width="3" stroke-linecap="round" stroke-linejoin="round"/>
<path d="M76.6667 70.0003V63.3336C76.6645 60.3794 75.6813 57.5095 73.8713 55.1746C72.0613 52.8398 69.5272 51.1722 66.6667 50.4336" stroke="black" stroke-width="3" stroke-linecap="round" stroke-linejoin="round"/>
<path d="M53.3333 10.4336C56.2013 11.1679 58.7434 12.8359 60.5587 15.1746C62.3741 17.5133 63.3594 20.3897 63.3594 23.3503C63.3594 26.3108 62.3741 29.1872 60.5587 31.5259C58.7434 33.8646 56.2013 35.5326 53.3333 36.2669" stroke="black" stroke-width="3" stroke-linecap="round" stroke-linejoin="round"/>
</svg>
